HIERARCHY
ROOT pelvis
{
  OFFSET 0 100 0
  CHANNELS 6 Xposition Yposition Zposition Zrotation Xrotation Yrotation
  JOINT pelvis_right_femur
  {
    OFFSET -10.78128 -3.44521 -0.5502486
    CHANNELS 3 Zrotation Xrotation Yrotation
    JOINT right_femur_tibia
    {
      OFFSET -0.8047443 -44.0398 -0.1307829
      CHANNELS 3 Zrotation Xrotation Yrotation
      JOINT right_tibia_foot
      {
        OFFSET 3.006224 -47.83518 -5
        CHANNELS 3 Zrotation Xrotation Yrotation
        End Site
        {
          OFFSET 0 -5 15
        }
      }
    }
  }
  JOINT pelvis_left_femur
  {
    OFFSET 10.78128 -3.44521 -0.5502486
    CHANNELS 3 Zrotation Xrotation Yrotation
    JOINT left_femur_tibia
    {
      OFFSET 0.8047443 -44.0398 -0.1307829
      CHANNELS 3 Zrotation Xrotation Yrotation
      JOINT left_tibia_foot
      {
        OFFSET -4.370144 -48.10324 -4.275266
        CHANNELS 3 Zrotation Xrotation Yrotation
        End Site
        {
          OFFSET 0 -5 15
        }
      }
    }
  }
  JOINT pelvis_spine1
  {
    OFFSET 0 6.468898 -3.129235
    CHANNELS 3 Zrotation Xrotation Yrotation
    JOINT spine1
    {
      OFFSET 0 23.15396 4.99043
      CHANNELS 3 Zrotation Xrotation Yrotation
      JOINT spine2
      {
        OFFSET 0 20.79997 -5.064912
        CHANNELS 3 Zrotation Xrotation Yrotation
        JOINT neck
        {
          OFFSET 0 14.38658 9.616178
          CHANNELS 3 Zrotation Xrotation Yrotation
          End Site
          {
            OFFSET 0 20 0
          }
        }
      }
      JOINT right_manubrium
      {
        OFFSET -5.722621 16.35077 3.967754
        CHANNELS 3 Zrotation Xrotation Yrotation
        JOINT right_clavicle
        {
          OFFSET -13.16364 1.694482 -4.693211
          CHANNELS 3 Zrotation Xrotation Yrotation
          JOINT right_humerus
          {
            OFFSET -28.5034 -0.3100689 -2.792744
            CHANNELS 3 Zrotation Xrotation Yrotation
            JOINT right_radius
            {
              OFFSET -25.15693 0.02248979 -1.271978
              CHANNELS 3 Zrotation Xrotation Yrotation
              End Site
              {
                OFFSET -15 0 0
              }
            }
          }
        }
      }
      JOINT left_manubrium
      {
        OFFSET 5.722621 16.35077 3.967754
        CHANNELS 3 Zrotation Xrotation Yrotation
        JOINT left_clavicle
        {
          OFFSET 13.16364 1.694482 -4.693211
          CHANNELS 3 Zrotation Xrotation Yrotation
          JOINT left_humerus
          {
            OFFSET 29.39168 -1.063119 -2.237045
            CHANNELS 3 Zrotation Xrotation Yrotation
            JOINT left_radius
            {
              OFFSET 24.59957 -0.9528479 0.9047498
              CHANNELS 3 Zrotation Xrotation Yrotation
              End Site
              {
                OFFSET 15 -0 -0
              }
            }
          }
        }
      }
    }
  }
}
MOTION
Frames: 13
Frame Time: 0.0416666666667
25.48175 100.8296 260.8781 0.5372044 -7.458119 -0.1139451 2.256973 19.14278 5.502828 -0 25.23226 -0 -1.21676 -12.99629 -3.834028 0.1323156 -24.27741 -2.665139 -0 21.94077 -0 -5.505595 -8.123657 19.50607 0.6841422 1.136538 9.960003 -3.207351 10.94648 -2.380726 2.074461 18.93912 4.319539 1.499645 -16.03712 6.118535 0.4504332 -24.33665 11.62057 80.34947 15.88719 -3.637998 -0 0 29.2269 -22.93605 9.217473 13.12079 1.674159 -14.15645 -3.112885 -90.4234 19.81969 28.25678 0 0 -10.98632 -3.013603 4.439635 20.21331
26.71897 100.7532 268.4319 1.388754 -7.386731 0.1174466 0.8835068 19.72526 5.647163 -0 33.32374 -0 -0.3217616 -10.87553 -3.970441 -1.581041 -21.55569 -3.860061 -0 23.74377 -0 -5.279674 -8.301084 19.4465 -0.1660877 0.07828712 9.998392 -3.448841 10.89944 -2.371566 2.377779 19.0801 4.165449 1.460707 -16.01704 6.329176 0.6138031 -23.36654 10.99271 81.10695 15.26878 -4.603746 -0 0 28.89829 -23.0677 9.059927 13.00405 1.729307 -13.72075 -2.883068 -90.20812 19.99008 28.12493 0 0 -10.79635 -3.247359 4.547631 20.48692
27.95986 101.4688 276.2796 1.238155 -8.671377 1.330527 -0.2894648 16.64692 5.514276 -0 42.29016 -0 -0.5571771 -10.79552 -5.239302 -3.064376 -16.62961 -4.550622 -0 24.93442 -0 -4.893172 -9.658706 19.30755 -0.191549 -0.1837622 9.248267 -3.358172 11.3613 -2.662216 2.62288 19.50994 4.016518 1.381708 -15.95598 6.527246 1.238973 -22.17794 10.57525 81.96069 14.93575 -6.129859 -0 0 27.32939 -22.88357 9.051041 12.53651 1.600838 -13.68252 -2.839668 -89.47642 20.29282 27.1796 0 0 -11.04776 -3.335039 4.736949 20.50161
29.23276 102.4223 282.8987 1.654422 -9.453685 2.005376 -0.3188198 12.81082 5.028509 -0 50.24755 -0 -0.8522316 -10.58265 -6.402225 -4.103729 -11.48027 -5.154599 -0 24.84149 -0 -4.428954 -11.48966 18.81947 -0.2774054 0.186312 8.417511 -3.629124 11.55873 -2.788672 2.529468 19.93172 4.091472 1.112006 -15.81525 6.756944 2.093576 -21.31598 10.57409 82.80926 14.90896 -7.544426 -0 0 25.19384 -22.43135 9.153624 11.89486 1.287856 -14.29039 -2.994728 -88.2504 20.69628 25.13621 0 0 -11.80424 -3.226501 5.033023 20.29799
30.25363 103.8952 289.1466 1.650528 -10.22676 2.828403 0.1188534 6.538621 4.34972 -0 54.13831 -0 -1.073413 -10.85742 -7.40033 -4.476859 -5.721627 -5.35886 -0 23.5411 -0 -4.221919 -12.99922 18.16843 -0.1823789 0.8247704 7.24115 -3.536099 11.73947 -3.287319 2.385315 20.4872 4.286368 0.820356 -15.51751 7.099031 2.966429 -20.47217 10.5698 83.82813 15.06323 -9.135484 -0 0 22.74073 -21.79115 9.311742 11.16763 1.063602 -15.08781 -3.377333 -86.79053 21.11482 22.31058 0 0 -12.97768 -3.011764 5.395954 19.94614
31.19831 105.1565 295.0357 1.355362 -10.13084 3.155616 0.4736176 1.003067 3.002687 -0 53.14995 -0 -0.4915853 -10.02102 -8.558344 -4.348026 -0.7923318 -5.605941 -0 21.34074 -0 -4.259639 -14.151 17.3915 -0.03390736 0.7538359 6.160724 -3.205691 11.38689 -4.070075 2.089265 20.85872 4.682189 0.4302186 -15.46131 7.593788 3.359135 -19.40464 10.32784 84.97218 15.2218 -11.01166 -0 0 20.44901 -21.14719 9.439788 10.55373 1.299844 -15.72892 -3.77761 -85.37272 21.44108 18.99945 0 0 -14.64747 -2.74521 5.800362 19.43269
32.11736 106.1873 300.2381 0.7739134 -9.915597 4.142958 0.5798567 -4.835188 2.968047 -0 49.64706 -0 -0.7186243 -9.190368 -8.856975 -3.849601 3.566488 -6.127974 -0 18.84478 -0 -4.423949 -15.16075 16.51528 0.3411398 1.096242 5.064866 -2.58597 10.95867 -5.168438 2.114172 21.33568 4.920606 0.2386477 -15.25266 8.120724 3.242248 -18.6866 9.991484 85.40289 15.35021 -12.76869 -0 0 18.30798 -20.58883 9.511919 9.994328 1.575646 -16.79425 -4.441518 -83.83517 21.73427 15.09945 0 0 -16.69166 -2.480115 6.23141 18.69653
33.11807 106.432 305.6423 0.671822 -9.436848 5.597508 0.6967492 -10.47229 2.949897 -0 42.83657 -0 -1.107941 -7.956869 -9.564879 -3.700341 7.663932 -6.484633 -0 16.52268 -0 -4.617883 -16.35373 15.5943 0.3739872 1.210354 4.04406 -1.957824 10.48752 -6.560944 2.31506 21.49283 5.003744 0.1484942 -15.21073 8.569239 2.803645 -17.56995 9.329044 85.90024 15.35846 -14.87536 -0 0 16.16976 -19.99572 9.451457 9.445678 2.046084 -17.76794 -5.049372 -82.20912 21.95479 11.14136 0 0 -18.89231 -2.170087 6.695388 17.75407
33.95124 105.9513 311.1401 0.817321 -9.116149 6.74557 0.2051552 -16.40957 2.481191 -0 33.58845 -0 -1.495771 -6.543979 -10.70732 -3.671524 11.6113 -6.53902 -0 14.84392 -0 -4.792153 -17.81272 14.80376 0.1211172 1.511131 3.48229 -1.377344 10.00611 -7.607704 2.588895 21.48647 4.953874 0.1134076 -15.29677 8.887053 2.443616 -16.3412 8.764065 86.41116 15.30616 -16.96924 -0 0 13.81504 -19.24313 9.329252 8.684218 2.688132 -18.93146 -5.440184 -80.34114 22.02948 7.100602 0 0 -21.26975 -1.718856 7.226588 16.60804
34.64454 104.7187 316.8241 1.190065 -8.29101 7.325194 -0.5698423 -20.05172 1.910127 -0 24.29693 -0 -2.150523 -6.236113 -11.18964 -3.937819 14.93167 -6.445575 -0 13.92754 -0 -5.003556 -19.37364 14.0904 -0.3736812 1.359209 3.416937 -1.064655 9.387319 -8.093417 2.861456 21.39744 4.799666 0.09978268 -15.46514 9.049933 2.126484 -15.17714 8.394587 86.90802 15.27351 -18.80427 -0 0 11.34078 -18.38909 9.239801 7.783411 3.509132 -20.05591 -5.465832 -78.51878 21.92346 3.413797 0 0 -23.60279 -1.147723 7.775411 15.3649
35.3272 103.3913 322.896 1.653792 -7.946344 7.635024 -0.1878664 -23.2514 1.464335 -0 17.89635 -0 -3.106398 -6.56219 -11.85312 -4.342777 18.21467 -6.306641 -0 14.32428 -0 -5.368376 -20.56892 13.54776 -0.7626753 1.480767 3.476921 -0.8863949 9.274093 -8.19081 2.996636 21.30519 4.598362 0.03205942 -15.70739 9.024034 2.085639 -13.68381 8.206963 87.54269 15.23916 -20.65449 -0 0 8.467908 -17.38043 9.212781 6.677843 4.208648 -21.07369 -5.214889 -76.98463 21.68508 0.3892948 0 0 -25.51971 -0.5369895 8.269595 14.1781
35.90343 102.1219 328.8706 1.856743 -7.759353 7.899109 0.2292803 -25.11837 1.399336 -0 14.42486 -0 -4.171383 -7.070774 -12.36975 -4.40644 20.76042 -6.172254 -0 16.20026 -0 -5.962361 -20.92232 13.23414 -0.7499744 1.620762 3.535835 -0.6099695 8.941588 -8.046449 3.064913 21.12506 4.599704 -0.0950433 -16.26066 9.212442 2.512093 -12.52477 8.243476 88.17325 15.21861 -22.10989 -0 0 5.75129 -16.14989 9.279571 5.496284 4.472574 -21.97151 -5.083512 -75.99289 21.47312 -1.800482 0 0 -26.63141 -0.01446503 8.675767 13.22376
36.31525 101.1689 335.6968 1.640264 -7.626041 8.075616 1.661536 -24.70957 2.193995 -0 15.59195 -0 -4.775088 -6.431059 -12.5594 -3.863214 22.56242 -6.493307 -0 20.01438 -0 -6.800699 -19.95753 13.20599 -0.4356615 1.135866 3.548953 -0.4788664 8.677976 -7.745309 3.131188 21.35031 4.51141 -0.1746572 -16.60277 9.271333 2.786887 -11.79361 8.202593 88.57186 15.22242 -22.78011 -0 0 4.077983 -15.04076 9.383217 4.600715 4.677667 -22.29538 -4.589275 -75.76168 21.38856 -2.674722 0 0 -26.87997 0.3664864 9.015502 12.57069
